<?xml version="1.0" encoding="UTF-8"?>
<svg width="1440px" height="479px" viewBox="0 0 1440 479" version="1.1" xmlns="http://www.w3.org/2000/svg" xmlns:xlink="http://www.w3.org/1999/xlink">
    <!-- Generator: Sketch 52.5 (67469) - http://www.bohemiancoding.com/sketch -->
    <title>Bottom</title>
    <desc>Created with Sketch.</desc>
    <g id="Page-1" stroke="none" stroke-width="1" fill="none" fill-rule="evenodd">
        <g id="Desktop-HD" transform="translate(0.000000, -544.000000)">
            <g id="Bottom" transform="translate(0.000000, 544.000000)">
                <g id="Sne" transform="translate(0.000000, 276.000000)">
                    <path d="M1440,25.0494916 C1194.46875,68.919235 868.3875,106.273114 667.125,46.2260514 C425.3625,-25.9540001 151.2,1.73842433 0,26.9593139 L0,203 L1440,203 L1440,25.0494916 Z" id="Path" fill="#FFFFFF"></path>
                    <path d="M989.774936,109.649856 C989.606138,109.144092 989.381074,108.75072 989.099744,108.357349 C988.030691,106.896254 986.736573,105.940922 985.442455,105.097983 C984.148338,104.255043 982.797954,103.580692 981.44757,102.90634 C978.803069,101.613833 976.102302,100.54611 973.457801,99.5907781 C968.168798,97.6801153 962.936061,96.1066282 957.928389,94.6455331 C947.913043,91.8357349 938.629156,89.5878963 930.189258,87.6772334 C921.805627,85.7665706 914.265985,84.1930836 907.682864,82.8443804 C901.099744,81.4956772 895.529412,80.4279539 890.971867,79.5288184 C881.913043,77.7867435 877.017903,77 877.017903,77 L876.905371,77.5619597 C876.905371,77.5619597 881.744246,78.4610951 890.803069,80.259366 C899.861893,82.1138329 913.084399,84.8674352 929.851662,88.9135447 C938.235294,90.9365994 947.462916,93.3530259 957.365729,96.3314121 C962.317136,97.8487032 967.43734,99.4783862 972.670077,101.501441 C975.258312,102.512968 977.846547,103.580692 980.434783,104.873199 C981.7289,105.491354 982.966752,106.221902 984.148338,107.008646 C985.273657,107.795389 986.455243,108.694524 987.074169,109.649856 C987.693095,110.661383 987.636829,111.279539 986.736573,112.122478 C985.836317,112.909222 984.485934,113.583573 983.13555,114.089337 C980.378517,115.100865 977.340153,115.775216 974.245524,116.393372 C968.056266,117.517291 961.529412,118.191643 954.890026,118.753602 C941.498721,119.821326 927.375959,120.270893 912.634271,120.495677 C883.150895,120.945245 851.191816,120.383285 817.375959,119.427954 C808.879795,119.20317 800.327366,118.92219 791.662404,118.753602 C782.941176,118.585014 774.163683,118.416427 765.273657,118.304035 C756.383632,118.191643 747.381074,118.135447 738.322251,118.079251 C729.263427,118.079251 720.092072,118.079251 710.808184,118.135447 C673.841432,118.360231 635.636829,119.259366 596.813299,120.608069 C577.401535,121.282421 557.877238,122.12536 538.240409,123.080692 C518.603581,124.036023 498.910486,125.103746 479.273657,126.227666 C321.841432,135.443804 164.803069,150.95389 47.2071611,164.216138 C30.6649616,166.070605 14.8542199,167.925072 0,169.667147 L0,194 C15.6982097,191.808357 32.4654731,189.504323 50.0767263,187.087896 C167.053708,171.240634 323.360614,152.35879 480.230179,139.770893 C499.867008,138.197406 519.44757,136.736311 539.028133,135.331412 C558.55243,133.982709 578.076726,132.690202 597.375959,131.622478 C636.030691,129.37464 674.122762,127.688761 710.976982,126.621037 C720.204604,126.340058 729.319693,126.17147 738.378517,125.946686 C747.43734,125.778098 756.383632,125.60951 765.273657,125.553314 C774.163683,125.440922 782.941176,125.440922 791.606138,125.384726 C795.938619,125.384726 800.2711,125.440922 804.547315,125.440922 C808.823529,125.440922 813.099744,125.497118 817.319693,125.497118 C851.191816,125.721902 883.263427,125.60951 912.803069,124.597983 C927.601023,124.036023 941.780051,123.305476 955.227621,121.956772 C961.97954,121.282421 968.506394,120.439481 974.86445,119.146974 C978.015345,118.472622 981.16624,117.742075 984.148338,116.56196 C984.879795,116.28098 985.667519,115.943804 986.398977,115.494236 C987.130435,115.100865 987.861893,114.595101 988.537084,113.976945 C989.212276,113.35879 989.831202,112.403458 990,111.279539 C990,110.717579 989.943734,110.15562 989.774936,109.649856 Z" id="Path" fill="#EAF4F3"></path>
                </g>
                <g id="Træ" transform="translate(142.000000, 47.000000)">
                    <path d="M71.2091691,24 L55.965616,62.8059701 L61.0468004,60.8656716 L45.0773639,102.258706 L47.9808978,102.258706 L30.5596944,153.353234 L34.1891117,152.706468 L16.7679083,218.029851 L20.7602674,216.089552 L0,282.706468 L11.6141356,278.179104 L8.71060172,284 L45.0773639,278.179104 L41.4479465,282.706468 C41.4479465,282.706468 152,282.059701 152,280.119403 C152,278.179104 110.552053,158.4555 110.552053,158.4555 L114.907354,159.102266 L98.9379179,107.648425 L102.567335,108.654505 L87.6141356,66.1116639 L90.8806113,66.7584301 L71.2091691,24 Z" id="Path" fill="#34A65F"></path>
                    <path d="M68.0594059,9.14205926 L71.4719472,0 L74.8844884,8.9261051 L82,9.14205926 L76.4818482,15.0448062 L78.8778878,25.4106057 L71.2541254,19.7957976 C71.2541254,19.7957976 62.5412541,26.8503 62.8316832,25.9144987 C63.1221122,24.9786973 66.8250825,15.5486992 66.8250825,15.5486992 L60,9.21404398 L68.0594059,9.21404398 L68.0594059,9.14205926 Z" id="Path" fill="#EAE4A9"></path>
                    <path d="M110.848921,158.499303 L115.165468,159.14628 L99.3381295,107.675676 L102.935252,108.682084 L88.1870504,65.9816105 L91.4244604,66.6285874 L72,24 C72.5035971,36.7957648 77.1798561,72.8826971 77.1798561,72.8826971 L73.4388489,71.5887434 L84.7338129,127.947618 L81.4244604,127.5163 L93.2230216,182.58122 L88.4748201,180.855949 L103.726619,248.357203 L110.273381,282 C132.647482,281.568682 152,280.993592 152,280.202842 C151.928058,278.261911 110.848921,158.499303 110.848921,158.499303" id="Path" fill="#0F8A5F"></path>
                    <path d="M60,79.5006777 C60,83.1196185 56.8571429,86 53,86 C49.1428571,86 46,83.0457626 46,79.5006777 C46,75.8817368 49.1428571,73.0013553 53,73.0013553 C56.8571429,72.9274994 60,75.8817368 60,79.5006777" id="Path" fill="#CC231E"></path>
                    <path d="M96,67.5006777 C96,71.1196185 92.8571429,74 89,74 C85.1428571,74 82,71.0457626 82,67.5006777 C82,63.8817368 85.1428571,61.0013553 89,61.0013553 C92.8571429,60.9274994 96,63.8817368 96,67.5006777" id="Path" fill="#CC231E"></path>
                    <path d="M87,107.500678 C87,111.119619 83.8571429,114 80,114 C76.1428571,114 73,111.045763 73,107.500678 C73,103.881737 76.1428571,101.001355 80,101.001355 C83.8571429,100.927499 87,103.881737 87,107.500678" id="Path" fill="#EAE4A9"></path>
                    <path d="M46,131.500678 C46,135.119619 42.8571429,138 39,138 C35.1428571,138 32,135.045763 32,131.500678 C32,127.881737 35.1428571,125.001355 39,125.001355 C42.8571429,124.927499 46,127.881737 46,131.500678" id="Path" fill="#CC231E"></path>
                    <path d="M107,142.500678 C107,146.119619 103.857143,149 100,149 C96.1428571,149 93,146.045763 93,142.500678 C93,138.881737 96.1428571,136.001355 100,136.001355 C103.857143,135.927499 107,138.881737 107,142.500678" id="Path" fill="#CC231E"></path>
                    <path d="M124,210.5 C124,214.119318 120.857143,217 117,217 C113.142857,217 110,214.045455 110,210.5 C110,206.880682 113.142857,204 117,204 C120.857143,204 124,206.880682 124,210.5" id="Path" fill="#CC231E"></path>
                    <path d="M107,244.500678 C107,248.119619 103.857143,251 100,251 C96.1428571,251 93,248.045763 93,244.500678 C93,240.881737 96.1428571,238.001355 100,238.001355 C103.857143,237.927499 107,240.881737 107,244.500678" id="Path" fill="#CC231E"></path>
                    <path d="M143,261.5 C143,265.119318 139.857143,268 136,268 C132.142857,268 129,265.045455 129,261.5 C129,257.880682 132.142857,255 136,255 C139.857143,255 143,257.880682 143,261.5" id="Path" fill="#EAE4A9"></path>
                    <path d="M67,166.500678 C67,170.119619 63.8571429,173 60,173 C56.1428571,173 53,170.045763 53,166.500678 C53,162.881737 56.1428571,160.001355 60,160.001355 C63.8571429,159.927499 67,162.881737 67,166.500678" id="Path" fill="#CC231E"></path>
                    <path d="M29,197.5 C29,201.119318 25.8571429,204 22,204 C18.1428571,204 15,201.045455 15,197.5 C15,193.880682 18.1428571,191 22,191 C25.8571429,191 29,193.880682 29,197.5" id="Path" fill="#EAE4A9"></path>
                    <path d="M16,254.500678 C16,258.119619 12.8571429,261 9,261 C5.14285714,261 2,258.045763 2,254.500678 C2,250.881737 5.14285714,248.001355 9,248.001355 C12.8571429,247.927499 16,250.881737 16,254.500678" id="Path" fill="#CC231E"></path>
                    <path d="M58,235.5 C58,239.119318 54.8571429,242 51,242 C47.1428571,242 44,239.045455 44,235.5 C44,231.880682 47.1428571,229 51,229 C54.8571429,229 58,231.954545 58,235.5" id="Path" fill="#CC231E"></path>
                    <path d="M86,199.5 C86,203.119318 82.8571429,206 79,206 C75.1428571,206 72,203.045455 72,199.5 C72,195.880682 75.1428571,193 79,193 C82.8571429,193 86,195.954545 86,199.5" id="Path" fill="#EAE4A9"></path>
                </g>
                <g id="Jan" transform="translate(1189.000000, 0.000000)">
                    <ellipse id="Oval" fill="#EAF4F3" cx="77.6043457" cy="371.405241" rx="64.5557624" ry="6.50758665"></ellipse>
                    <path d="M135.813803,329.68438 C135.813803,329.68438 130.886988,355.208581 137.480225,360.270037 L139.074195,330.696671 L140.957977,331.202817 L141.247789,327.515184 L136.031162,327.298265 L135.813803,329.68438 Z" id="Path" fill="#4D4D4D"></path>
                    <path d="M30.509794,355.906244 C30.509794,355.906244 6.16553345,346.65101 0.00701515057,352.218612 L28.9158246,358.943118 L28.0463867,360.750781 L31.6690445,361.618459 L32.7558419,356.557003 L30.509794,355.906244 Z" id="Path" fill="#4D4D4D"></path>
                    <path d="M32.3211229,354.268596 L25.3656199,352.171707 L48.7679895,273.791441 L111.22261,273.791441 L110.353172,278.129832 C106.875421,296.134155 108.541844,309.9447 115.35244,319.199934 C122.380396,328.816701 132.451385,330.045912 132.596291,330.045912 L131.799307,337.204258 C131.292135,337.131951 118.467926,335.541208 109.556188,323.466019 C102.093513,313.2708 99.7025584,299.026416 102.528232,281.022093 L54.2019762,281.022093 L32.3211229,354.268596 Z" id="Path" fill="#525252"></path>
                    <g id="Jan-Gaardboe-Jensen" transform="translate(19.561644, 4.609756)">
                        <g id="Jan_Gaardboe_Jensen">
                            <g id="Group">
                                <polygon id="Path" fill="#525252" points="104.427534 79.8121646 112.77 7.2085061 63.8658904 10.6658232 43.4412329 27.0880793 19.5645205 78.6597256"></polygon>
                                <ellipse id="Oval" fill="#525252" cx="26.4686301" cy="176.040823" rx="26.4657534" ry="26.5060976"></ellipse>
                                <ellipse id="Oval" fill="#525252" style="mix-blend-mode: multiply;" cx="26.4686301" cy="176.040823" rx="15.5342466" ry="15.5579268"></ellipse>
                                <ellipse id="Oval" fill="#525252" cx="96.8042466" cy="175.176494" rx="26.4657534" ry="26.5060976"></ellipse>
                                <ellipse id="Oval" fill="#525252" style="mix-blend-mode: multiply;" cx="96.8042466" cy="175.176494" rx="15.5342466" ry="15.5579268"></ellipse>
                                <path d="M20.8072603,63.049939 C30.1220548,9.08121951 106.127671,17.8628049 106.127671,17.8628049 L106.438356,244.406387 L14.7,244.406387 C15.5630137,123.947698 17.2832877,83.839939 20.8072603,63.049939 Z" id="Path" fill="#F8CFAA"></path>
                                <path d="M15.9858904,143.766768 C15.4105479,169.008064 15.0078082,201.648018 14.7,244.420793 L106.438356,244.420793 L106.300274,143.766768 L15.9858904,143.766768 Z" id="Path" fill="#FCFCFC"></path>
                                <rect id="Rectangle" fill="#FCFCFC" x="29.3453425" y="143.752363" width="54.6575342" height="126.646191"></rect>
                                <polygon id="Path" fill="#525252" points="108.026301 143.752363 79.400137 143.752363 70.1946575 270.394929 108.16726 270.394929"></polygon>
                                <path d="M106.127671,17.8628049 C106.127671,17.8628049 31.0684932,6.05030488 20.8072603,63.049939 C18.3965753,76.4326372 17.0128767,97.9112195 15.9858904,143.752363 L106.314658,143.752363 L106.127671,17.8628049 Z" id="Path" fill="#F8CFAA"></path>
                                <path d="M65.1086301,91.2616463 C65.1086301,91.2616463 66.1327397,99.904939 59.8010959,100.020183 C49.3672603,100.201692 48.1590411,92.8923476 46.7724658,88.4957927 L56.6021918,88.1932774 L56.3634247,41.136311 L60.4627397,44.4582165 C60.4627397,44.4582165 64.0816438,90.5356098 65.1086301,91.2616463 Z" id="Path" fill="#D3A681"></path>
                                <path d="M65.8910959,89.1469207 C65.8910959,89.1469207 65.3473973,96.5167683 59.619863,97.3033079 C50.8746575,98.455747 49.0047945,90.7171189 47.7361644,86.6720579 L58.7136986,87.9397409 L56.5417808,39.6755945 L60.2815068,40.280625 C60.2210959,40.280625 64.9273973,88.4842683 65.8910959,89.1469207 Z" id="Path" fill="#F8CFAA"></path>
                                <polygon id="Path" fill="#FFE3CC" points="45.5671233 88.7233994 45.5671233 88.12125 58.1124658 87.8792378 58.1124658 37.5003659 58.7136986 37.5003659 58.7136986 88.4237652"></polygon>
                                <path d="M78.6665753,98.2713567 C77.8044029,102.996907 74.3347014,106.820514 69.72,108.130473 C61.7457534,110.501616 57.6147945,106.113704 57.6147945,106.113704 L59.9506849,104.840259 C59.9506849,104.840259 62.119726,108.600091 69.0410959,106.3125 C75.9193151,103.935595 76.0257534,98.6458994 76.0257534,98.6458994 L78.6665753,98.2713567 Z" id="Path" fill="#D3A180"></path>
                                <path d="M18.669863,87.3289482 C18.3821918,90.276311 14.7690411,95.1424848 10.350411,95.1424848 C5.93178082,95.1424848 2.32726027,90.276311 2.03383562,87.3289482 L18.669863,87.3289482 Z" id="Path" fill="#F8CFAA"></path>
                                <path d="M5.78794521,90.9418445 L5.12342466,90.2042835 L15.5054795,89.835503 L15.0624658,90.573064 C13.8858904,92.4889939 12.4130137,93.5204268 10.7186301,93.5204268 C7.99438356,93.4483994 5.85986301,91.013872 5.78794521,90.9418445 Z M7.25794521,91.013872 C8.06917808,91.6765244 9.32054795,92.4889939 10.6467123,92.4889939 C11.7484932,92.4889939 12.7812329,91.9127744 13.6643836,90.72 L7.25794521,91.013872 Z" id="Shape" fill="#D3A180" fill-rule="nonzero"></path>
                                <path d="M121.943836,87.7697561 C121.656164,90.72 118.043014,95.5861738 113.624384,95.5861738 C109.205753,95.5861738 105.601233,90.72 105.307808,87.7697561 L121.943836,87.7697561 Z" id="Path" fill="#F8CFAA"></path>
                                <path d="M109.061918,90.9418445 L108.397397,90.2042835 L118.779452,89.835503 L118.336438,90.573064 C117.159863,92.4889939 115.686986,93.5204268 113.992603,93.5204268 C111.343151,93.4483994 109.133836,91.013872 109.061918,90.9418445 Z M110.531918,91.013872 C111.343151,91.6765244 112.594521,92.4889939 113.920685,92.4889939 C115.022466,92.4889939 116.055205,91.9127744 116.938356,90.72 L110.531918,91.013872 Z" id="Shape" fill="#D3A180" fill-rule="nonzero"></path>
                                <path d="M41.3326027,55.0289634 L39.1232877,55.0289634 C39.1232877,55.0289634 40.5213699,50.1627896 37.7223288,50.0158537 C34.8456164,49.9409451 35.3691781,54.8071189 35.3691781,54.8071189 L33.6,54.5852744 C33.6,54.5852744 33.749589,48.5349695 37.8719178,48.7625762 C41.9942466,48.9901829 41.3326027,55.0289634 41.3326027,55.0289634 Z" id="Path" fill="#525252"></path>
                                <path d="M91.3873973,56.1814024 L89.1780822,56.1814024 C89.1780822,56.1814024 90.5761644,51.4621646 87.7771233,51.3152287 C84.900411,51.2403201 85.4239726,55.9595579 85.4239726,55.9595579 L83.6547945,55.7377134 C83.6547945,55.7377134 83.8043836,49.8401067 87.9267123,50.0619512 C92.0490411,50.2837957 91.3873973,56.1814024 91.3873973,56.1814024 Z" id="Path" fill="#525252"></path>
                                <path d="M79.0463014,115.990107 C78.3853911,119.085196 75.654849,121.296894 72.494589,121.296894 C69.3343291,121.296894 66.6037869,119.085196 65.9428767,115.990107 L79.0463014,115.990107 Z" id="Path" fill="#D3A180"></path>
                                <path d="M29.7106849,73.7560976 L48.489863,73.7560976 C48.489863,73.7560976 38.8615068,66.0750915 29.7106849,73.7560976 Z" id="Path" fill="#FFFFFF"></path>
                                <ellipse id="Oval" fill="#525252" cx="39.0657534" cy="72.1109909" rx="1.75479452" ry="1.64510671"></ellipse>
                                <path d="M76.0947945,72.8427896 L94.8739726,72.8427896 C94.8739726,72.8427896 85.2427397,65.1617835 76.0947945,72.8427896 Z" id="Path" fill="#FFFFFF"></path>
                                <ellipse id="Oval" fill="#525252" cx="85.449863" cy="71.1976829" rx="1.75479452" ry="1.64510671"></ellipse>
                                <g opacity="0.3" transform="translate(18.123288, 64.248476)" fill="#FFFFFF" id="Path">
                                    <path d="M1.04712329,13.8091006 C1.23473431,15.2036121 2.44169523,16.232273 3.84616438,16.1946494 L33.3324658,16.1946494 C34.6639361,16.2384324 35.7989018,15.2356141 35.9215068,13.9070579 L36.4968493,2.07727134 C36.5142311,1.59459107 36.3291914,1.12664004 35.9865473,0.786757535 C35.6439032,0.446875026 35.1749069,0.2660612 34.6931507,0.288109756 L2.62643836,0.288109756 C1.17082192,0.288109756 0.0373972603,1.46359756 0.17260274,2.82347561 L1.04712329,13.8091006 Z"></path>
                                    <path d="M52.2065753,13.613186 C52.2957534,15.0537348 53.5758904,16.2061738 55.1206849,16.2061738 L83.6317808,16.2061738 C85.2657534,16.2061738 86.6436986,15.0537348 86.8306849,13.5296341 L87.8375342,2.86957317 C88.0072603,1.49528963 86.8623288,0.290990854 85.3894521,0.290990854 L53.4579452,0.290990854 C52.9771648,0.270599228 52.5097121,0.452146721 52.1683537,0.791837429 C51.8269954,1.13152814 51.6427267,1.59851817 51.66,2.08015244 L52.2065753,13.613186 Z"></path>
                                </g>
                                <path d="M114.890137,61.7419207 L9.49315068,61.7419207 L10.6093151,66.9855183 L15.0394521,66.9855183 L16.4605479,80.8522409 C16.6468216,82.2479007 17.8541564,83.278123 19.259589,83.2406707 L54.2663014,83.2406707 C55.5967301,83.281556 56.7299965,82.2802391 56.8553425,80.9530793 L57.5342466,69.9242378 C57.6349315,68.2733689 59.0905479,66.9855183 60.8510959,66.9855183 L63.5465753,66.9855183 C65.3071233,66.9855183 66.7627397,68.2733689 66.8634247,69.9242378 L67.5250685,80.6592073 C67.6142466,82.0997561 68.8915068,83.2521951 70.4391781,83.2521951 L104.424658,83.2521951 C106.009944,83.2887607 107.377477,82.144539 107.623562,80.5756555 L109.292055,66.9970427 L113.773973,66.9970427 L114.890137,61.7419207 Z M51.4557534,80.443125 L21.9694521,80.443125 C20.5649829,80.4807486 19.358022,79.4520877 19.170411,78.0575762 L18.3073973,67.0719512 C18.1664384,65.7120732 19.3056164,64.5365854 20.7612329,64.5365854 L52.8164384,64.5365854 C53.2972187,64.5161937 53.7646715,64.6977412 54.1060298,65.0374319 C54.4473882,65.3771226 54.6316569,65.8441127 54.6143836,66.325747 L54.0390411,78.1555335 C53.9165502,79.4818025 52.7850366,80.4837974 51.4557534,80.443125 Z M101.755068,80.443125 L73.2439726,80.443125 C71.6991781,80.443125 70.4190411,79.3108537 70.329863,77.8501372 L69.7717808,66.325747 C69.7545075,65.8441127 69.9387762,65.3771226 70.2801346,65.0374319 C70.6214929,64.6977412 71.0889457,64.5161937 71.569726,64.5365854 L103.501233,64.5365854 C104.97411,64.5365854 106.119041,65.7408841 105.949315,67.1151677 L104.942466,77.7752287 C104.693093,79.3362403 103.333217,80.4744755 101.755068,80.443125 Z" id="Shape" fill="#525252" fill-rule="nonzero"></path>
                                <polygon id="Path" fill="#F8CFAA" points="39.1261644 138.586555 56.6741096 156.16125 76.8110959 135.993567"></polygon>
                                <path d="M15.1228767,143.770488 C14.5475342,175.529914 14.1419178,216.598573 13.8369863,270.41668 L43.7260274,270.41668 L36.2465753,143.770488 L15.1228767,143.770488 Z" id="Path" fill="#525252"></path>
                                <path d="M111.616438,8.93140244 C111.616438,8.93140244 79.3972603,-4.89786585 58.6849315,8.35518293 L63.8630137,19.3033537 L106.127671,17.8628049 L111.616438,8.93140244 Z" id="Path" fill="#525252"></path>
                                <path d="M106.726027,16.4222561 C105.762329,16.8083232 116.794521,0 116.794521,0 C116.794521,0 119.671233,11.2362805 106.726027,16.4222561 Z" id="Path" fill="#525252"></path>
                                <path d="M104.712329,14.117378 L110.178082,0 C110.178082,0 113.342466,8.93140244 104.712329,14.117378 Z" id="Path" fill="#525252"></path>
                                <path d="M106.726027,13.5411585 L121.39726,11.8125 C121.39726,11.8125 115.068493,18.7271341 106.726027,13.5411585 Z" id="Path" fill="#525252"></path>
                                <path d="M64.4383562,15.5579268 C65.4682192,15.6789329 55.2328767,9.2195122 55.2328767,9.2195122 C55.2328767,9.2195122 54.6575342,14.4054878 64.4383562,15.5579268 Z" id="Path" fill="#525252"></path>
                                <path d="M42.8630137,146.359756 C43.1276712,147.350854 43.320411,148.350595 43.5189041,149.350335 C43.7173973,150.350076 43.8784932,151.349817 44.0194521,152.35532 C44.160411,153.360823 44.3071233,154.372088 44.4164384,155.368948 C44.5257534,156.365808 44.6379452,157.385716 44.7242466,158.39122 L43.8957534,157.754497 C44.7587671,157.613323 45.6217808,157.489436 46.4847945,157.371311 C47.3478082,157.253186 48.2108219,157.152348 49.0939726,157.060152 C49.9771233,156.967957 50.840137,156.898811 51.7175342,156.835427 C52.5949315,156.772043 53.4723288,156.731707 54.3612329,156.731707 C53.5212329,157.019817 52.6726027,157.258948 51.8268493,157.492317 C50.9810959,157.725686 50.1267123,157.933125 49.2723288,158.131921 C48.4179452,158.330716 47.5606849,158.512226 46.7034247,158.68221 C45.8461644,158.852195 44.9773973,159.016418 44.1143836,159.166235 L43.3664384,159.295884 L43.2858904,158.526631 C43.1823288,157.521128 43.0960274,156.509863 43.0183562,155.501479 C42.9406849,154.493095 42.8831507,153.48471 42.84,152.464802 C42.7968493,151.444893 42.7767123,150.448034 42.7680822,149.419482 C42.7594521,148.39093 42.7910959,147.391189 42.8630137,146.359756 Z" id="Path" fill="#D1D0CD"></path>
                                <path d="M59.8356164,156.443598 C60.7993151,156.489695 61.7515068,156.590534 62.7123288,156.691372 C63.6731507,156.79221 64.6138356,156.92186 65.560274,157.063034 C66.5067123,157.204207 67.4473973,157.351143 68.3880822,157.518247 C69.3287671,157.685351 70.2665753,157.858216 71.2043836,158.048369 L70.3413699,158.748476 C70.3413699,157.668064 70.3413699,156.587652 70.3615068,155.507241 C70.3816438,154.426829 70.4190411,153.346418 70.4736986,152.266006 C70.4967123,151.72436 70.5312329,151.185595 70.5628767,150.643948 L70.6865753,149.024771 C70.7872603,147.94436 70.8879452,146.863948 71.0576712,145.783537 C71.2273973,146.863948 71.3252055,147.94436 71.4258904,149.024771 L71.549589,150.643948 C71.5812329,151.185595 71.6157534,151.72436 71.6416438,152.266006 C71.6963014,153.346418 71.7308219,154.426829 71.7509589,155.507241 C71.7710959,156.587652 71.779726,157.668064 71.7710959,158.748476 L71.7710959,159.62721 L70.9080822,159.448582 C69.9741096,159.256509 69.0420548,159.04811 68.1119178,158.823384 C67.1827397,158.607302 66.2564384,158.371052 65.3330137,158.12904 C64.409589,157.887027 63.4890411,157.619085 62.5684932,157.345381 C61.6479452,157.071677 60.7417808,156.786448 59.8356164,156.443598 Z" id="Path" fill="#D1D0CD"></path>
                                <path d="M63.5753425,8.06707317 C64.2887671,8.7354878 64.9590411,9.43847561 65.6149315,10.1558689 C66.2708219,10.8732622 66.9065753,11.5964177 67.5336986,12.3483841 C68.1608219,13.1003506 68.7678082,13.8465549 69.3546575,14.6215701 C69.9415068,15.3965854 70.5226027,16.1773628 71.0547945,16.9984756 C70.3384932,16.330061 69.6682192,15.6270732 69.0123288,14.9096799 C68.3564384,14.1922866 67.7206849,13.4691311 67.0935616,12.7171646 C66.4664384,11.9651982 65.8594521,11.2161128 65.2726027,10.4439787 C64.6857534,9.67184451 64.110411,8.89394817 63.5753425,8.06707317 Z" id="Path" fill="#525252"></path>
                                <path d="M69.9041096,6.91463415 C70.370137,7.6838872 70.7872603,8.47330793 71.1871233,9.27425305 C71.5869863,10.0751982 71.9580822,10.8819055 72.3234247,11.6972561 C72.6887671,12.5126067 73.0282192,13.3366006 73.3446575,14.1692378 C73.6610959,15.001875 73.9689041,15.8460366 74.2076712,16.7103659 C73.7387671,15.9411128 73.3216438,15.1516921 72.9217808,14.350747 C72.5219178,13.5498018 72.1508219,12.7430945 71.7854795,11.9277439 C71.420137,11.1123933 71.0835616,10.2883994 70.7642466,9.4528811 C70.4449315,8.6173628 70.1572603,7.77896341 69.9041096,6.91463415 Z" id="Path" fill="#525252"></path>
                                <path d="M73.3561644,6.33841463 C73.8221918,7.10766768 74.2393151,7.89708841 74.6391781,8.69803354 C75.0390411,9.49897866 75.410137,10.305686 75.7754795,11.1210366 C76.1408219,11.9363872 76.480274,12.7603811 76.7967123,13.5930183 C77.1131507,14.4256555 77.4209589,15.2698171 77.659726,16.1341463 C77.1908219,15.3648933 76.7736986,14.5754726 76.3738356,13.7745274 C75.9739726,12.9735823 75.6028767,12.166875 75.2375342,11.3515244 C74.8721918,10.5361738 74.5356164,9.71217988 74.2163014,8.87666159 C73.8969863,8.04114329 73.6093151,7.2027439 73.3561644,6.33841463 Z" id="Path" fill="#525252"></path>
                                <path d="M84.2876712,5.94082317 C84.0863014,6.80515244 83.8331507,7.66948171 83.559863,8.53381098 C83.2865753,9.39814024 82.9845205,10.2250152 82.6968493,11.0634146 C82.4091781,11.901814 82.0553425,12.728689 81.7015068,13.5469207 C81.3476712,14.3651524 80.9794521,15.1833841 80.5508219,15.975686 C80.7521918,15.1113567 81.0053425,14.2470274 81.2786301,13.3826982 C81.5519178,12.5183689 81.8539726,11.6914939 82.1560274,10.8530945 C82.4580822,10.0146951 82.7975342,9.18782012 83.1513699,8.36958841 C83.5052055,7.55135671 83.8705479,6.733125 84.2876712,5.94082317 Z" id="Path" fill="#525252"></path>
                                <path d="M89.5031507,6.66397866 C89.1435616,7.48797256 88.7350685,8.28315549 88.3093151,9.06681402 C87.8835616,9.85047256 87.4463014,10.6254878 86.980274,11.3918598 C86.5142466,12.1582317 86.0424658,12.9073171 85.5419178,13.6477591 C85.0413699,14.3882012 84.5293151,15.12 83.9654795,15.8201067 C84.3250685,14.9961128 84.7335616,14.2009299 85.1593151,13.4143902 C85.5850685,12.6278506 86.0223288,11.8585976 86.4883562,11.0922256 C86.9543836,10.3258537 87.4261644,9.57676829 87.9267123,8.83632622 C88.4272603,8.09588415 88.9393151,7.36408537 89.5031507,6.66397866 Z" id="Path" fill="#525252"></path>
                                <path d="M94.9027397,8.39551829 C94.3446575,9.1013872 93.7520548,9.76403963 93.1306849,10.4122866 C92.5093151,11.0605335 91.8879452,11.6914939 91.2493151,12.313811 C90.6106849,12.936128 89.9519178,13.5382774 89.2787671,14.1231402 C88.6056164,14.708003 87.9209589,15.2755793 87.1960274,15.8143445 C87.7541096,15.1113567 88.3467123,14.4487043 88.9680822,13.7975762 C89.5894521,13.1464482 90.2108219,12.52125 90.8494521,11.8989329 C91.4880822,11.2766159 92.1468493,10.6744665 92.8228767,10.0896037 C93.4989041,9.50474085 94.1778082,8.93140244 94.9027397,8.39551829 Z" id="Path" fill="#525252"></path>
                            </g>
                        </g>
                    </g>
                    <g id="Group" transform="translate(42.863014, 0.000000)">
                        <path d="M4.31506849,35.7301829 L92.9178082,36.3018293 L92.9178082,0.288109756 L35.6463165,0.288109756 C18.395103,0.288109756 4.31506849,14.3252033 4.31506849,31.6651423 L4.31506849,35.7301829 Z" id="Path" fill="#CC231E"></path>
                        <polygon id="Path" fill="#CC231E" points="97.3978861 127.632622 90.6164384 127.632622 90.6164384 0 102.986301 0"></polygon>
                        <rect id="Rectangle" fill="#D3A180" x="5.75342466" y="30.5396341" width="77.3835616" height="16.1341463"></rect>
                        <rect id="Rectangle" fill="#FCFCFC" x="0" y="28.2347561" width="88.890411" height="16.1341463"></rect>
                        <ellipse id="Oval" fill="#FCFCFC" cx="94.5" cy="127.776677" rx="9.6369863" ry="9.65167683"></ellipse>
                    </g>
                </g>
            </g>
        </g>
    </g>
</svg>