<?xml version="1.0" encoding="UTF-8"?>
<svg width="147px" height="126px" viewBox="0 0 147 126" version="1.1" xmlns="http://www.w3.org/2000/svg" xmlns:xlink="http://www.w3.org/1999/xlink">
    <!-- Generator: Sketch 52.5 (67469) - http://www.bohemiancoding.com/sketch -->
    <title>Gave</title>
    <desc>Created with Sketch.</desc>
    <g id="Page-1" stroke="none" stroke-width="1" fill="none" fill-rule="evenodd">
        <g id="Desktop-HD" transform="translate(-671.000000, -290.000000)">
            <g id="Gave" transform="translate(671.000000, 290.000000)">
                <rect id="Rectangle" fill="#CC231E" x="8.52651283e-14" y="33" width="145.3" height="92"></rect>
                <rect id="Rectangle" fill="#F5624D" x="26" y="33" width="119" height="92"></rect>
                <rect id="Rectangle" fill="#EAE4A9" x="65" y="32" width="14.7" height="93.3"></rect>
                <rect id="Rectangle" fill="#EAE4A9" x="-8.52651283e-14" y="72" width="146.2" height="14.7"></rect>
                <path d="M38.2451316,6.43532025 C25.3451316,26.5353203 72.2451316,33.7353203 72.2451316,33.7353203 C73.1451316,32.8353203 53.5451316,-17.4646797 38.2451316,6.43532025 Z M69.6451316,32.3353203 C69.6451316,32.3353203 37.4451316,27.2353203 46.2451316,13.0353203 C56.8451316,-3.96467975 70.3451316,31.6353203 69.6451316,32.3353203 Z" id="Shape" fill="#EAE4A9"></path>
                <path d="M71.0299018,33.7353203 C71.0299018,33.7353203 117.929902,26.5353203 105.029902,6.43532025 C89.7299018,-17.4646797 70.1299018,32.8353203 71.0299018,33.7353203 Z M97.0299018,12.9353203 C105.929902,27.1353203 73.6299018,32.2353203 73.6299018,32.2353203 C72.9299018,31.6353203 86.4299018,-3.96467975 97.0299018,12.9353203 Z" id="Shape" fill="#EAE4A9" fill-rule="nonzero"></path>
            </g>
        </g>
    </g>
</svg>